<svg xmlns="http://www.w3.org/2000/svg" viewBox="0 0 724.24 217.58"><defs><style>.cls-1{font-size:91.04px;}.cls-1,.cls-9{fill:#28125d;}.cls-1,.cls-3{font-family:AvenirNext-Medium, AvenirNext Medium;font-weight:500;}.cls-2{letter-spacing:0.01em;}.cls-3{font-size:67.5px;fill:#af0557;}.cls-4{letter-spacing:0.01em;}.cls-5{letter-spacing:0.01em;}.cls-6{letter-spacing:0.01em;}.cls-7{letter-spacing:0em;}.cls-8{letter-spacing:-0.01em;}</style></defs><g id="Capa_2" data-name="Capa 2"><g id="Layer_1" data-name="Layer 1"><text class="cls-1" transform="translate(235.55 99.27)">SEGO <tspan class="cls-2" x="230.51" y="0">S</tspan><tspan x="275.94" y="0">chool</tspan></text><text class="cls-3" transform="translate(367.51 167.48)"><tspan class="cls-4">S</tspan><tspan x="33.68" y="0">o</tspan><tspan class="cls-5" x="70.74" y="0">f</tspan><tspan class="cls-6" x="91.19" y="0">t</tspan><tspan class="cls-7" x="114.14" y="0">w</tspan><tspan x="163.55" y="0">a</tspan><tspan class="cls-8" x="196.08" y="0">r</tspan><tspan x="217.48" y="0">e</tspan></text><path class="cls-9" d="M130.11,210.63c0,3.44-1.67,6.26-3.8,6.58h-.65l-4.49.08-1.7,0-1,0-1.26,0a5.46,5.46,0,0,1-.58,0h-1.7l-4.19.08a4.15,4.15,0,0,1-.79.08h-.47v-.06h-.15l0-.05h-.13l0,.11-5.43-.11h-1.87a4.21,4.21,0,0,1-.62,0l-.14,0H99.06l-1.71,0-4.48-.08-.65,0c-2.13-.32-3.8-3.14-3.8-6.58a10,10,0,0,1,.33-2.56l.48-1.33,2.32-6.41L96,188.14l.9-2.5a9.77,9.77,0,0,1,.92-1.48v0a5.31,5.31,0,0,1,4.12-2.3h6a3.39,3.39,0,0,1,.64-.05h8a5.3,5.3,0,0,1,4.11,2.29l0,.07v0l0-.07a9.38,9.38,0,0,1,.92,1.47l.91,2.51L127,200.33l2.33,6.41.48,1.33A10,10,0,0,1,130.11,210.63Z"/><path class="cls-9" d="M219.73,64.36v87a13.27,13.27,0,0,0-.65-2.09v.1a12.76,12.76,0,0,1,.65,2.1v5.73c-1.36,6.35-7.19,11.5-14.86,13.45l-.5.13c-.8.19-1.61.35-2.44.47v0a29.05,29.05,0,0,1-3.88.27h-1v0H18.7v-.28a18.09,18.09,0,0,1-3.15.28H15C6.8,171.32.24,165.71.24,158.8a7.72,7.72,0,0,1,0-1h0V146H151.09c25.08-2.23,44.48-17.49,44.46-36,0-18.91-20.34-34.42-46.23-36.05H78.44c-8.53-.42-15.51-4.59-17.25-10.07a8.74,8.74,0,0,1-.42-2.65,8.47,8.47,0,0,1,.42-2.7c1.77-5.58,9-9.82,17.73-10.11H198.05v0h.58a29.55,29.55,0,0,1,3.3.28c.67.1,1.34.23,2,.37a25.87,25.87,0,0,1,5.24,1.79c.34.16.68.32,1,.5C215.59,54.29,219.27,59,219.73,64.36Z"/><path class="cls-9" d="M141.05,122.46Z"/><path class="cls-9" d="M182.21,74.93h-.06v-.08Z"/><path class="cls-9" d="M205.64,13.63h0v-.78C205.68,13.11,205.66,13.37,205.64,13.63Z"/><path class="cls-9" d="M219.73,11.21V25.35h-149A64.57,64.57,0,0,0,48.24,30.7c-14.42,6.46-24,18-24,31.14s9.61,24.68,24,31.14a62.4,62.4,0,0,0,14.82,4.46h77.51c8.66.29,15.79,4.41,17.66,9.86l.07.18a8.6,8.6,0,0,1,.42,2.62v.06a8.68,8.68,0,0,1-.42,2.64c0,.06-.05.11-.07.17-1.84,5.36-8.74,9.41-17.18,9.82H22.36v0l-1,0a28.27,28.27,0,0,1-3.82-.27v0c-.81-.11-1.6-.28-2.38-.46a24.2,24.2,0,0,1-5.9-2.24c-4.55-2.44-7.85-6.22-9-10.64v-7a12.82,12.82,0,0,1,.46-1.45v-.08A12.36,12.36,0,0,0,.23,102V14.62a16.08,16.08,0,0,1,6.45-9.9A24,24,0,0,1,17.53.31,26.72,26.72,0,0,1,21.35,0H203.6C212,.33,218.79,5.11,219.73,11.21Z"/><path class="cls-9" d="M205.68,12.85c0,.26,0,.52,0,.78s0,.25,0,.38V11.65A8,8,0,0,1,205.68,12.85Z"/><path class="cls-9" d="M.23,101.54c0,.06,0,.12-.05.18v.1c0-.06,0-.12.05-.18Z"/><path class="cls-9" d="M.18,18c0-.31-.1-.61-.13-.92V53.3c.05-.1.09-.19.13-.29Z"/><path class="cls-9" d="M.05,74.54V102.2c0-.16.09-.32.13-.48V74.83C.14,74.73.1,74.64.05,74.54Z"/><path class="cls-9" d="M.18,53c0,.1-.08.19-.13.29V74.54c.05.1.09.19.13.29Z"/><path class="cls-9" d="M.23,74.93a.93.93,0,0,0-.05-.1v26.89c0-.06,0-.12.05-.18Z"/><path class="cls-9" d="M.23,18.36c0-.11,0-.23-.05-.34V53l.05-.1Z"/><path class="cls-9" d="M.18,53V74.83a.93.93,0,0,1,.05.1v-22Z"/><path class="cls-9" d="M0,15.94c0,.39,0,.78.05,1.16V14.79C0,15.17,0,15.55,0,15.94Z"/><path class="cls-9" d="M.18,13.87c0,.31-.1.61-.13.92V17.1c0,.31.08.61.13.92Z"/><path class="cls-9" d="M.23,18.36V13.53c0,.11,0,.23-.05.34V18C.2,18.13.21,18.25.23,18.36Z"/><path class="cls-9" d="M.05,102.3v5.76l.13.49v-6.73C.14,102,.09,102.14.05,102.3Z"/><path class="cls-9" d="M.23,101.64c0,.06,0,.12-.05.18v6.73c0,.06,0,.12.05.19Z"/><path class="cls-9" d="M22.36,122.44v0h-1Z"/><path class="cls-9" d="M.69,100.1a14.19,14.19,0,0,0-.46,1.44v.1a14.37,14.37,0,0,1,.46-1.45Z"/><path class="cls-9" d="M.29,157.84a7.72,7.72,0,0,0,0,1v-1Z"/><path class="cls-9" d="M18.7,171.29v.28H15.55A18.09,18.09,0,0,0,18.7,171.29Z"/><path class="cls-9" d="M198.63,48.48h-.58v0Z"/><path class="cls-9" d="M219.79,65.51c0,.39,0,.78-.06,1.16V64.36C219.76,64.75,219.79,65.12,219.79,65.51Z"/><path class="cls-9" d="M198.05,171.57h-1v0h1Z"/><rect class="cls-9" x="219.73" y="107.78" width="0.06" height="2.8"/><path class="cls-9" d="M182.21,74.93h-.06v-.08Z"/><path class="cls-9" d="M198.09,83.5h-.2v0Z"/><path class="cls-9" d="M197.23,172.22v.29H197v-.3Z"/></g></g></svg>